<?xml version="1.0" encoding="utf-8"?>
<!-- Generator: Adobe Illustrator 20.1.0, SVG Export Plug-In . SVG Version: 6.00 Build 0)  -->
<svg version="1.1" id="Слой_1" xmlns="http://www.w3.org/2000/svg" xmlns:xlink="http://www.w3.org/1999/xlink" x="0px" y="0px"
	 width="30px" height="30px" viewBox="0 0 30 30" enable-background="new 0 0 30 30" xml:space="preserve">
<g>
	<g>
		<path fill="#FFFFFF" d="M4.425,12C5.732,7.385,9.966,4,15,4s9.268,3.385,10.575,8h4.124C28.309,5.153,22.257,0,15,0
			S1.691,5.153,0.301,12H4.425z"/>
	</g>
	<g>
		<path fill="#FFFFFF" d="M25.575,18c-1.307,4.615-5.541,8-10.575,8s-9.268-3.385-10.575-8H0.301C1.691,24.847,7.743,30,15,30
			s13.309-5.153,14.699-12H25.575z"/>
	</g>
</g>
<g>
	<g>
		<path fill="#FFFFFF" d="M16.571,9.461c2.417,0.685,4.19,2.902,4.19,5.539s-1.773,4.854-4.19,5.539v2.16
			c3.586-0.728,6.285-3.898,6.285-7.699s-2.699-6.971-6.285-7.699V9.461z"/>
	</g>
	<g>
		<path fill="#FFFFFF" d="M13.429,20.539c-2.417-0.685-4.19-2.902-4.19-5.539s1.773-4.854,4.19-5.539v-2.16
			C9.843,8.029,7.143,11.199,7.143,15s2.699,6.971,6.285,7.699V20.539z"/>
	</g>
</g>
</svg>
