<?xml version="1.0" encoding="utf-8"?>
<!-- Generator: Adobe Illustrator 20.1.0, SVG Export Plug-In . SVG Version: 6.00 Build 0)  -->
<svg version="1.1" xmlns="http://www.w3.org/2000/svg" xmlns:xlink="http://www.w3.org/1999/xlink" x="0px" y="0px" width="720px"
	 height="90px" viewBox="0 0 720 90" enable-background="new 0 0 720 90" xml:space="preserve">
<g id="Слой_1" display="none">
	<circle display="inline" cx="45" cy="45" r="45"/>
	<circle display="inline" cx="135" cy="45" r="45"/>
	<circle display="inline" cx="225" cy="45" r="45"/>
	<circle display="inline" cx="315" cy="45" r="45"/>
	<circle display="inline" cx="405" cy="45" r="45"/>
	<circle display="inline" cx="495" cy="45" r="45"/>
	<circle display="inline" cx="585" cy="45" r="45"/>
	<circle display="inline" cx="675" cy="45" r="45"/>
</g>
<g id="Слой_1_копия_2">
	<g id="Слой_1__x28_копия_x29_">
	</g>
	<path id="twitter" fill="#FFFFFF" d="M432.677,27.832c-2.036,0.903-4.225,1.514-6.522,1.789c2.344-1.406,4.145-3.631,4.993-6.284
		c-2.194,1.302-4.625,2.247-7.212,2.756c-2.071-2.207-5.023-3.586-8.289-3.586c-6.272,0-11.357,5.085-11.357,11.356
		c0,0.891,0.1,1.757,0.294,2.588c-9.438-0.473-17.806-4.994-23.408-11.865c-0.978,1.677-1.538,3.628-1.538,5.709
		c0,3.94,2.005,7.417,5.052,9.453c-1.862-0.059-3.613-0.569-5.144-1.421c-0.001,0.048-0.001,0.096-0.001,0.143
		c0,5.502,3.915,10.092,9.11,11.136c-0.953,0.26-1.957,0.398-2.992,0.398c-0.732,0-1.443-0.071-2.137-0.203
		c1.445,4.511,5.639,7.795,10.609,7.886c-3.886,3.047-8.784,4.862-14.104,4.862c-0.917,0-1.821-0.054-2.709-0.16
		c5.026,3.223,10.995,5.103,17.409,5.103c20.889,0,32.312-17.305,32.312-32.312c0-0.492-0.011-0.982-0.033-1.469
		C429.229,32.11,431.155,30.11,432.677,27.832z"/>
	<path id="instagram_2_" fill-rule="evenodd" clip-rule="evenodd" fill="#FFFFFF" d="M514.036,41.191h-4.309
		c0.314,1.219,0.499,2.492,0.499,3.808c0,8.411-6.817,15.228-15.227,15.228s-15.227-6.817-15.227-15.228
		c0-1.316,0.186-2.59,0.5-3.808h-4.309v20.94c0,1.049,0.852,1.902,1.905,1.902h34.261c1.053,0,1.906-0.852,1.906-1.902V41.191z
		 M514.036,27.868c0-1.051-0.853-1.903-1.906-1.903h-5.709c-1.052,0-1.903,0.852-1.903,1.903v5.712c0,1.05,0.852,1.903,1.903,1.903
		h5.709c1.053,0,1.906-0.853,1.906-1.903V27.868z M495,35.482c-5.257,0-9.518,4.26-9.518,9.517c0,5.256,4.261,9.518,9.518,9.518
		c5.256,0,9.518-4.262,9.518-9.518C504.518,39.742,500.256,35.482,495,35.482 M514.036,69.745h-38.072
		c-3.153,0-5.709-2.557-5.709-5.712V25.965c0-3.154,2.557-5.709,5.709-5.709h38.072c3.153,0,5.709,2.556,5.709,5.709v38.068
		C519.745,67.188,517.189,69.745,514.036,69.745"/>
	<path id="youtube_x5F_alt_1_" fill="#FFFFFF" d="M608.548,33.468c-0.597-2.594-2.72-4.508-5.273-4.793
		c-6.049-0.676-12.172-0.679-18.267-0.676c-6.096-0.003-12.22,0-18.269,0.676c-2.554,0.285-4.675,2.199-5.272,4.793
		c-0.85,3.695-0.859,7.728-0.859,11.532c0,3.804,0,7.837,0.849,11.533c0.596,2.594,2.718,4.508,5.273,4.793
		c6.049,0.675,12.172,0.679,18.268,0.675c6.096,0.004,12.219,0,18.268-0.676c2.554-0.285,4.676-2.199,5.273-4.793
		c0.849-3.695,0.854-7.728,0.854-11.532C609.392,41.195,609.397,37.163,608.548,33.468z M579.883,51.65V38.124l12.898,6.763
		L579.883,51.65z"/>
	<g id="youtube_1_">
		<g>
			<path fill="#FFFFFF" d="M689.162,53.01c-0.854,0-1.281,0.652-1.281,1.956v1.306h2.555v-1.306
				C690.436,53.662,690.009,53.01,689.162,53.01z"/>
			<path fill="#FFFFFF" d="M695.411,45.841c-0.518-2.249-2.357-3.907-4.571-4.154c-5.243-0.586-10.55-0.588-15.834-0.586
				c-5.284-0.003-10.592,0-15.835,0.586c-2.214,0.247-4.053,1.906-4.57,4.154c-0.736,3.203-0.745,6.698-0.745,9.996
				c0,3.297,0,6.793,0.736,9.996c0.517,2.249,2.356,3.907,4.57,4.154c5.243,0.586,10.55,0.588,15.834,0.586
				c5.284,0.003,10.591,0,15.834-0.586c2.214-0.247,4.053-1.905,4.571-4.154c0.736-3.203,0.741-6.698,0.741-9.996
				C696.143,52.539,696.146,49.044,695.411,45.841z M665.918,48.722h-3.061v16.263h-2.842V48.722h-3.006v-2.664h8.909V48.722z
				 M673.639,64.985h-2.557v-1.538c-1.016,1.165-1.98,1.733-2.92,1.733c-0.824,0-1.39-0.334-1.646-1.049
				c-0.141-0.427-0.226-1.102-0.226-2.097V50.882h2.554v10.383c0,0.599,0,0.91,0.024,0.994c0.062,0.396,0.256,0.598,0.598,0.598
				c0.513,0,1.049-0.395,1.616-1.196V50.882h2.557V64.985z M683.347,60.752c0,1.304-0.087,2.244-0.258,2.842
				c-0.341,1.048-1.025,1.585-2.043,1.585c-0.908,0-1.787-0.505-2.641-1.561v1.367h-2.555V46.058h2.555v6.181
				c0.825-1.015,1.701-1.529,2.641-1.529c1.018,0,1.701,0.536,2.043,1.592c0.17,0.567,0.258,1.5,0.258,2.835V60.752z M692.991,58.4
				h-5.11v2.5c0,1.305,0.427,1.957,1.304,1.957c0.629,0,0.996-0.342,1.142-1.025c0.023-0.139,0.056-0.707,0.056-1.732h2.607v0.373
				c0,0.823-0.031,1.39-0.054,1.646c-0.086,0.567-0.287,1.079-0.598,1.531c-0.706,1.024-1.755,1.529-3.09,1.529
				c-1.337,0-2.354-0.481-3.092-1.445c-0.543-0.706-0.822-1.818-0.822-3.317v-4.939c0-1.507,0.247-2.61,0.79-3.323
				c0.739-0.965,1.756-1.446,3.061-1.446c1.282,0,2.299,0.48,3.015,1.446c0.535,0.713,0.79,1.816,0.79,3.323V58.4z"/>
			<path fill="#FFFFFF" d="M679.68,53.01c-0.42,0-0.847,0.2-1.274,0.621v8.596c0.427,0.428,0.853,0.63,1.274,0.63
				c0.737,0,1.112-0.63,1.112-1.903v-6.018C680.792,53.662,680.417,53.01,679.68,53.01z"/>
		</g>
		<path fill-rule="evenodd" clip-rule="evenodd" fill="#FFFFFF" d="M670.574,19.427h-2.894l-1.952,7.506l-2.032-7.506h-3.012
			c0.603,1.771,1.232,3.553,1.835,5.326c0.918,2.666,1.49,4.675,1.749,6.048v7.74h2.863v-7.74L670.574,19.427z M678.224,33.931
			v-4.99c0-1.522-0.261-2.635-0.801-3.356c-0.715-0.972-1.718-1.46-3.012-1.46c-1.286,0-2.291,0.487-3.005,1.46
			c-0.549,0.721-0.808,1.834-0.808,3.356v4.99c0,1.513,0.259,2.636,0.808,3.35c0.714,0.971,1.72,1.459,3.005,1.459
			c1.294,0,2.297-0.487,3.012-1.459C677.964,36.567,678.224,35.444,678.224,33.931z M675.643,34.416
			c0,1.318-0.399,1.977-1.231,1.977c-0.833,0-1.232-0.66-1.232-1.977v-5.993c0-1.318,0.4-1.973,1.232-1.973
			c0.832,0,1.231,0.656,1.231,1.973V34.416z M687.771,38.541V24.297h-2.582v10.887c-0.572,0.809-1.114,1.209-1.63,1.209
			c-0.347,0-0.548-0.204-0.605-0.604c-0.031-0.083-0.031-0.398-0.031-1.004V24.297h-2.574v11.264c0,1.005,0.086,1.687,0.229,2.118
			c0.257,0.722,0.831,1.06,1.663,1.06c0.941,0,1.921-0.573,2.948-1.752v1.554H687.771z"/>
	</g>
	<path id="facebook" fill="#FFFFFF" d="M229.423,73.563V47.505h8.747l1.31-10.156h-10.056v-6.484c0-2.94,0.816-4.944,5.033-4.944
		l5.378-0.002v-9.083c-0.93-0.123-4.123-0.4-7.836-0.4c-7.753,0-13.062,4.732-13.062,13.424v7.489h-8.769v10.156h8.769v26.058
		H229.423z"/>
	<path id="vk_x5F_alt" fill-rule="evenodd" clip-rule="evenodd" fill="#FFFFFF" d="M134.345,62.261h3.647
		c0,0,1.102-0.121,1.665-0.728c0.518-0.557,0.501-1.602,0.501-1.602s-0.071-4.894,2.2-5.615c2.24-0.71,5.115,4.73,8.163,6.823
		c2.305,1.583,4.056,1.236,4.056,1.236l8.15-0.114c0,0,4.263-0.263,2.242-3.615c-0.166-0.274-1.178-2.479-6.06-7.011
		c-5.111-4.743-4.425-3.976,1.73-12.18c3.749-4.997,5.247-8.047,4.779-9.353c-0.446-1.245-3.204-0.916-3.204-0.916l-9.176,0.057
		c0,0-0.681-0.093-1.185,0.209c-0.493,0.295-0.809,0.985-0.809,0.985s-1.453,3.866-3.389,7.154c-4.086,6.938-5.72,7.305-6.388,6.874
		c-1.554-1.005-1.165-4.033-1.165-6.186c0-6.725,1.02-9.528-1.986-10.254c-0.997-0.241-1.732-0.399-4.283-0.426
		c-3.274-0.033-6.045,0.01-7.614,0.779c-1.044,0.511-1.849,1.65-1.359,1.716c0.606,0.08,1.98,0.37,2.708,1.361
		c0.941,1.279,0.908,4.152,0.908,4.152s0.54,7.915-1.262,8.898c-1.237,0.674-2.933-0.702-6.576-6.997
		c-1.866-3.224-3.275-6.788-3.275-6.788s-0.272-0.666-0.756-1.023c-0.588-0.432-1.409-0.569-1.409-0.569l-8.72,0.057
		c0,0-1.309,0.037-1.789,0.606c-0.428,0.506-0.034,1.553-0.034,1.553s6.826,15.971,14.556,24.02
		C126.297,62.745,134.345,62.261,134.345,62.261L134.345,62.261L134.345,62.261z"/>
	<g id="g_x2B_">
		<path fill="#FFFFFF" d="M322.484,21.841h-12.52c-3.283,0-7.415,0.486-10.879,3.343c-2.615,2.249-3.891,5.349-3.891,8.145
			c0,4.741,3.647,9.544,10.09,9.544c0.609,0,1.277-0.062,1.946-0.123c-0.305,0.73-0.609,1.338-0.609,2.371
			c0,1.885,0.972,3.039,1.822,4.133c-2.733,0.182-7.84,0.486-11.608,2.796c-3.587,2.127-4.682,5.227-4.682,7.415
			c0,4.498,4.256,8.693,13.068,8.693c10.455,0,15.986-5.776,15.986-11.489c0-4.194-2.429-6.262-5.105-8.51l-2.188-1.703
			c-0.668-0.547-1.58-1.275-1.58-2.613c0-1.336,0.912-2.189,1.703-2.978c2.551-2.007,5.104-4.134,5.104-8.632
			c0-4.62-2.918-7.051-4.315-8.206h3.768L322.484,21.841z M317.135,59.043c0,3.767-3.097,6.562-8.934,6.562
			c-6.504,0-10.699-3.099-10.699-7.414c0-4.317,3.891-5.775,5.226-6.262c2.554-0.851,5.836-0.973,6.384-0.973
			c0.607,0,0.911,0,1.398,0.061C315.131,54.3,317.135,55.941,317.135,59.043z M312.274,39.469c-0.972,0.971-2.616,1.702-4.135,1.702
			c-5.227,0-7.599-6.748-7.599-10.821c0-1.58,0.304-3.222,1.339-4.499c0.974-1.215,2.675-2.006,4.254-2.006
			c5.048,0,7.66,6.808,7.66,11.184C313.793,36.124,313.67,38.07,312.274,39.469z"/>
		<polygon fill="#FFFFFF" points="337.847,42.303 331.923,42.303 331.923,36.378 328.691,36.378 328.691,42.303 322.766,42.303 
			322.766,45.534 328.691,45.534 328.691,51.459 331.923,51.459 331.923,45.534 337.847,45.534 		"/>
	</g>
	<g id="ok">
		<path fill="#FFFFFF" d="M45,45.871c7.695,0,13.949-6.255,13.949-13.945c0-7.693-6.255-13.951-13.949-13.951
			c-7.693,0-13.949,6.257-13.949,13.951C31.051,39.616,37.307,45.871,45,45.871z M45,26.15c3.186,0,5.776,2.591,5.776,5.776
			c0,3.182-2.59,5.773-5.776,5.773c-3.182,0-5.776-2.591-5.776-5.773C39.225,28.741,41.818,26.15,45,26.15z"/>
		<path fill="#FFFFFF" d="M50.644,57.25c2.84-0.647,5.578-1.77,8.101-3.355c1.909-1.203,2.484-3.727,1.281-5.636
			c-1.202-1.913-3.723-2.488-5.636-1.285c-5.714,3.594-13.07,3.592-18.781,0c-1.912-1.203-4.434-0.628-5.634,1.285
			c-1.203,1.911-0.629,4.433,1.28,5.636c2.522,1.583,5.26,2.707,8.1,3.355l-7.799,7.799c-1.594,1.596-1.594,4.183,0.002,5.779
			c0.799,0.797,1.844,1.197,2.889,1.197c1.047,0,2.093-0.399,2.892-1.197l7.66-7.663l7.667,7.663c1.594,1.596,4.182,1.596,5.777,0
			c1.598-1.596,1.598-4.185,0-5.779L50.644,57.25z"/>
	</g>
</g>
</svg>
